<svg width="28" height="27" viewBox="0 0 28 27" fill="none" xmlns="http://www.w3.org/2000/svg">
<path fill-rule="evenodd" clip-rule="evenodd" d="M12.2157 0C11.2992 0 10.5563 0.742929 10.5563 1.65938V2.49377H9.48245C8.566 2.49377 7.82307 3.2367 7.82307 4.15315V5.45513H7.66031C6.74386 5.45513 6.00093 6.19805 6.00093 7.1145V12.0717L5.1443 12.3757C4.33648 12.6623 3.87993 13.5171 4.09087 14.3479L6.02295 21.9578L7.41121 21.6053L5.47913 13.9954C5.45026 13.8817 5.51274 13.7648 5.62328 13.7255L13.2895 11.0052V21.1581H14.7218V11.0052L22.388 13.7255C22.4986 13.7648 22.561 13.8817 22.5322 13.9954L20.6001 21.6053L21.9883 21.9578L23.9204 14.3479C24.1314 13.5171 23.6748 12.6623 22.867 12.3757L22.0104 12.0717V7.1145C22.0104 6.19806 21.2674 5.45513 20.351 5.45513H20.1882V4.15315C20.1882 3.2367 19.4453 2.49377 18.5288 2.49377H17.455V1.65938C17.455 0.742929 16.7121 0 15.7956 0H12.2157ZM18.7559 5.45513H9.25538V4.15315C9.25538 4.02774 9.35704 3.92608 9.48245 3.92608H18.5288C18.6543 3.92608 18.7559 4.02774 18.7559 4.15315V5.45513ZM10.7218 8.34928C10.7218 8.7448 10.4012 9.06544 10.0057 9.06544C9.61016 9.06544 9.28953 8.7448 9.28953 8.34928C9.28953 7.95376 9.61016 7.63313 10.0057 7.63313C10.4012 7.63313 10.7218 7.95376 10.7218 8.34928ZM12.521 9.06544C12.9165 9.06544 13.2371 8.7448 13.2371 8.34928C13.2371 7.95376 12.9165 7.63313 12.521 7.63313C12.1254 7.63313 11.8048 7.95376 11.8048 8.34928C11.8048 8.7448 12.1254 9.06544 12.521 9.06544ZM15.7524 8.34928C15.7524 8.7448 15.4318 9.06544 15.0362 9.06544C14.6407 9.06544 14.3201 8.7448 14.3201 8.34928C14.3201 7.95376 14.6407 7.63313 15.0362 7.63313C15.4318 7.63313 15.7524 7.95376 15.7524 8.34928ZM17.5515 9.06544C17.947 9.06544 18.2676 8.7448 18.2676 8.34928C18.2676 7.95376 17.947 7.63313 17.5515 7.63313C17.156 7.63313 16.8353 7.95376 16.8353 8.34928C16.8353 8.7448 17.156 9.06544 17.5515 9.06544Z" fill="white"/>
<path fill-rule="evenodd" clip-rule="evenodd" d="M25.3071 21.3312C24.5663 20.8403 23.5848 20.9253 22.9394 21.5363L22.7947 21.6733C21.5872 22.8165 19.6966 22.8165 18.4891 21.6733C17.8338 21.053 16.808 21.053 16.1528 21.6733C14.9453 22.8165 13.0547 22.8165 11.8472 21.6733C11.192 21.053 10.1662 21.053 9.51095 21.6733C8.30339 22.8165 6.41284 22.8165 5.20528 21.6733L5.06058 21.5363C4.41522 20.9253 3.43367 20.8403 2.69288 21.3312L1.11185 22.379C0.782158 22.5975 0.337765 22.5074 0.119271 22.1777C-0.0992231 21.848 -0.00907936 21.4036 0.320613 21.1851L1.90164 20.1373C3.19809 19.2781 4.91587 19.4269 6.04529 20.4962L6.19 20.6332C6.84521 21.2535 7.87102 21.2535 8.52623 20.6332C9.73378 19.4899 11.6243 19.4899 12.8319 20.6332C13.4871 21.2535 14.5129 21.2535 15.1681 20.6332C16.3757 19.4899 18.2662 19.4899 19.4738 20.6332C20.129 21.2535 21.1548 21.2535 21.81 20.6332L21.9547 20.4962C23.0841 19.4269 24.8019 19.2781 26.0984 20.1373L27.6794 21.1851C28.0091 21.4036 28.0992 21.848 27.8807 22.1777C27.6622 22.5074 27.2178 22.5975 26.8882 22.379L25.3071 21.3312Z" fill="white"/>
<path fill-rule="evenodd" clip-rule="evenodd" d="M25.3071 25.1037C24.5663 24.6127 23.5848 24.6977 22.9394 25.3087L22.7947 25.4457C21.5872 26.589 19.6966 26.589 18.4891 25.4457C17.8338 24.8254 16.808 24.8254 16.1528 25.4457C14.9453 26.589 13.0547 26.589 11.8472 25.4457C11.192 24.8254 10.1662 24.8254 9.51095 25.4457C8.30339 26.589 6.41284 26.589 5.20528 25.4457L5.06058 25.3087C4.41522 24.6977 3.43367 24.6127 2.69288 25.1037L1.11185 26.1515C0.782158 26.37 0.337765 26.2798 0.119271 25.9501C-0.0992231 25.6204 -0.00907936 25.176 0.320613 24.9575L1.90164 23.9098C3.19809 23.0506 4.91587 23.1993 6.04529 24.2686L6.19 24.4056C6.84521 25.0259 7.87102 25.0259 8.52623 24.4056C9.73378 23.2624 11.6243 23.2624 12.8319 24.4056C13.4871 25.0259 14.5129 25.0259 15.1681 24.4056C16.3757 23.2624 18.2662 23.2624 19.4738 24.4056C20.129 25.0259 21.1548 25.0259 21.81 24.4056L21.9547 24.2686C23.0841 23.1993 24.8019 23.0506 26.0984 23.9098L27.6794 24.9575C28.0091 25.176 28.0992 25.6204 27.8807 25.9501C27.6622 26.2798 27.2178 26.37 26.8882 26.1515L25.3071 25.1037Z" fill="white"/>
<path d="M12.6755 14.9515C12.6755 15.347 12.3548 15.6677 11.9593 15.6677C11.5638 15.6677 11.2432 15.347 11.2432 14.9515C11.2432 14.556 11.5638 14.2354 11.9593 14.2354C12.3548 14.2354 12.6755 14.556 12.6755 14.9515Z" fill="white"/>
<path d="M16.7628 14.9515C16.7628 15.347 16.4421 15.6677 16.0466 15.6677C15.6511 15.6677 15.3305 15.347 15.3305 14.9515C15.3305 14.556 15.6511 14.2354 16.0466 14.2354C16.4421 14.2354 16.7628 14.556 16.7628 14.9515Z" fill="white"/>
</svg>
