<svg width="22" height="29" viewBox="0 0 22 29" fill="none" xmlns="http://www.w3.org/2000/svg">
<path fill-rule="evenodd" clip-rule="evenodd" d="M10.5191 2.0156C5.82275 2.0156 2.0156 5.82275 2.0156 10.5191C2.0156 13.2155 3.35606 16.4706 5.07733 19.5089C6.78341 22.5203 8.79684 25.2049 10.0117 26.7311C10.2801 27.0684 10.7618 27.0688 11.0308 26.7323C12.2462 25.2117 14.2585 22.5377 15.9632 19.5304C17.6828 16.4969 19.0226 13.2381 19.0226 10.5191C19.0226 5.82275 15.2154 2.0156 10.5191 2.0156ZM0.5 10.5191C0.5 4.9857 4.9857 0.5 10.5191 0.5C16.0525 0.5 20.5382 4.9857 20.5382 10.5191C20.5382 13.6507 19.0271 17.1988 17.2817 20.2778C15.5216 23.3828 13.455 26.1268 12.2146 27.6786C11.338 28.7754 9.70011 28.7734 8.82584 27.675C7.58656 26.118 5.51952 23.3641 3.75865 20.2559C2.01297 17.1746 0.5 13.6294 0.5 10.5191Z" fill="white" stroke="white"/>
<path fill-rule="evenodd" clip-rule="evenodd" d="M10.5236 14.5366C12.6771 14.5366 14.4228 12.7908 14.4228 10.6374C14.4228 8.48397 12.6771 6.73826 10.5236 6.73826C8.3702 6.73826 6.62449 8.48397 6.62449 10.6374C6.62449 12.7908 8.3702 14.5366 10.5236 14.5366ZM10.5236 16.0522C13.5141 16.0522 15.9384 13.6279 15.9384 10.6374C15.9384 7.64692 13.5141 5.22266 10.5236 5.22266C7.53315 5.22266 5.10889 7.64692 5.10889 10.6374C5.10889 13.6279 7.53315 16.0522 10.5236 16.0522Z" fill="white"/>
<path fill-rule="evenodd" clip-rule="evenodd" d="M10.5236 14.5366C12.6771 14.5366 14.4228 12.7908 14.4228 10.6374C14.4228 8.48397 12.6771 6.73826 10.5236 6.73826C8.3702 6.73826 6.62449 8.48397 6.62449 10.6374C6.62449 12.7908 8.3702 14.5366 10.5236 14.5366ZM10.5236 16.0522C13.5141 16.0522 15.9384 13.6279 15.9384 10.6374C15.9384 7.64692 13.5141 5.22266 10.5236 5.22266C7.53315 5.22266 5.10889 7.64692 5.10889 10.6374C5.10889 13.6279 7.53315 16.0522 10.5236 16.0522Z" fill="white"/>
<path d="M14.4228 10.6374C14.4228 12.7908 12.6771 14.5366 10.5236 14.5366C8.3702 14.5366 6.62449 12.7908 6.62449 10.6374C6.62449 8.48397 8.3702 6.73826 10.5236 6.73826C12.6771 6.73826 14.4228 8.48397 14.4228 10.6374Z" fill="white"/>
<path d="M14.4228 10.6374C14.4228 12.7908 12.6771 14.5366 10.5236 14.5366C8.3702 14.5366 6.62449 12.7908 6.62449 10.6374C6.62449 8.48397 8.3702 6.73826 10.5236 6.73826C12.6771 6.73826 14.4228 8.48397 14.4228 10.6374Z" fill="white"/>
</svg>
