<svg width="36" height="30" viewBox="0 0 36 30" fill="none" xmlns="http://www.w3.org/2000/svg">
<path d="M9.44139 8.38267C9.45309 8.48018 9.46309 8.56631 9.47149 8.63991C11.6859 9.49531 14.7784 10.2316 18.0722 11.0145L18.0862 11.0178C21.1262 11.7403 24.3218 12.4999 27.0627 13.4232C29.7855 14.3404 32.1613 15.4503 33.4731 16.9253C35.9419 19.7012 36.111 23.5214 35.8584 26.134C35.6547 28.2401 33.4923 29.2694 31.6325 28.5322C28.534 27.3042 25.3924 25.9544 22.3526 24.5829C18.1409 26.7548 14.4868 28.1998 12.5817 28.9015C11.5904 29.2666 10.4854 29.3689 9.43529 29.0134C8.66529 28.7527 7.6822 28.3393 6.7293 27.7078C5.4322 26.8481 5.6515 25.1161 6.7355 24.2582C8.13279 23.1524 10.2829 21.4996 12.545 19.9444C7.79679 17.6033 3.92035 15.5623 1.77655 14.4137C0.494401 13.7268 -0.221978 12.3057 0.0616219 10.8595C0.465311 8.80091 1.23981 5.39442 2.54134 1.58132C2.92633 0.453445 4.1227 -0.295504 5.3339 0.112706C6.2483 0.420885 6.9743 0.794904 7.4497 1.07438C7.97869 1.38531 8.31119 1.90485 8.43899 2.46614C8.80759 4.08618 9.07379 5.7048 9.24779 6.9162C9.33489 7.52249 9.39899 8.02814 9.44139 8.38267Z" fill="white"/>
</svg>
