<svg width="2032" height="1091" viewBox="0 0 2032 1091" fill="none" xmlns="http://www.w3.org/2000/svg">
<path fill-rule="evenodd" clip-rule="evenodd" d="M1640.92 171.288C1640.92 171.288 1542.91 63.1733 1493.92 57.4302C1444.9 51.6526 1411.03 77.6 1421.13 135.965C1431.23 194.329 1604.87 228.199 1604.87 228.199L1640.92 171.288Z" fill="#6F6856"/>
<path fill-rule="evenodd" clip-rule="evenodd" d="M781.159 643.291C781.159 643.291 778.98 735.526 784.031 800.394C788.459 857.202 763.584 1044.47 757.322 1090.07H872.01C875.539 1048.49 892.042 888.547 942.553 811.223C1000.95 721.86 781.159 643.291 781.159 643.291ZM1531.35 549.603C1531.35 549.603 1610.62 969.019 1622.14 1043.99L1632.83 1090.07H1513.68C1506.93 1045.24 1479.6 893.667 1406.67 786.694C1320.21 659.897 1531.35 549.603 1531.35 549.603Z" fill="#6F6856"/>
<path fill-rule="evenodd" clip-rule="evenodd" d="M1265.41 226.781C1265.41 226.781 1246.66 251.276 1170.27 239.755C1102.63 229.514 865.332 189.936 776.972 363.369L776.938 363.334C776.938 363.334 691.83 515.733 691.103 604.404C690.481 680.551 698.922 564.618 743.829 497.569C730.786 721.756 913.56 830.078 929.578 840.734C946.877 852.289 1000.92 1009.36 1005.97 1090.07H1020.43H1130.65C1130.65 1090.07 1117.68 876.784 1071.56 770.122C1071.56 770.122 1190.44 791.019 1261.08 762.2L1228.91 1090.07H1371.86C1368.82 1080.45 1358.89 1049.25 1354.05 1035.31C1348.27 1018.73 1518.34 707.433 1535.64 580.601C1535.64 580.601 1586.09 522.964 1577.44 400.457C1568.79 277.95 1265.41 226.781 1265.41 226.781Z" fill="#948977"/>
<path fill-rule="evenodd" clip-rule="evenodd" d="M1526.86 621.391C1530.97 606.411 1534.02 592.676 1535.64 580.602C1535.64 580.602 1574.56 536.11 1578.16 442.215L1229.29 258.853C1229.29 258.853 1181.13 342.784 1263.26 429.276C1334.81 504.558 1388.88 604.474 1526.86 621.391Z" fill="#6F6856"/>
<path fill-rule="evenodd" clip-rule="evenodd" d="M1071.56 770.122C1071.56 770.122 1190.44 791.019 1261.08 762.2L1271.91 677.161C1135.74 722.552 1026.21 656.264 1026.21 656.264C1041.33 677.887 1071.56 770.122 1071.56 770.122Z" fill="#6F6856"/>
<path fill-rule="evenodd" clip-rule="evenodd" d="M1762.15 382.259C1762.15 382.259 1747.38 385.891 1747.45 415.748C1747.51 445.605 1858.54 555.173 2018.75 486.187C2018.75 486.187 1875.21 515.525 1762.15 382.259Z" fill="white"/>
<path fill-rule="evenodd" clip-rule="evenodd" d="M1556.51 168.624C1556.51 168.624 1683.34 103.79 1774.12 177.274C1864.94 250.791 1813.77 342.3 1883.65 368.974C1953.57 395.648 1970.87 311.336 1933.4 274.559C1895.93 237.818 1756.13 148.454 1875.73 0L1917.52 33.1436C1917.52 33.1436 1840.44 111.678 1942.78 179.418C2045.12 247.159 2058.09 356 1984.57 438.132C1911.05 520.3 1764.78 485.703 1764.78 485.703C1764.78 485.703 1764.78 504.454 1764.05 508.779C1763.33 513.104 1719.39 481.378 1719.39 481.378C1719.39 481.378 1689.12 545.521 1546.44 491.481C1546.44 491.481 1543.57 550.572 1477.25 546.974C1410.96 543.341 1269.7 403.536 1235.1 335.83C1200.51 268.09 1270.43 135.481 1317.24 98.739C1364.08 61.9627 1477.97 74.21 1556.51 168.624Z" fill="#948977"/>
<path fill-rule="evenodd" clip-rule="evenodd" d="M1948.69 466.951C1871.72 510.993 1764.78 485.703 1764.78 485.703C1764.78 485.703 1764.78 504.454 1764.05 508.779C1763.32 513.103 1719.39 481.378 1719.39 481.378C1719.39 481.378 1689.11 545.52 1546.44 491.48C1546.44 491.48 1557.72 423.117 1551.56 380.979C1551.56 380.979 1578.51 449.618 1649.54 447.992C1720.6 446.366 1747.76 408.517 1747.76 408.517C1747.76 408.517 1800.38 521.856 1948.69 466.951Z" fill="#6F6856"/>
<path fill-rule="evenodd" clip-rule="evenodd" d="M1732.6 431.975C1732.6 431.975 1717.83 435.607 1717.9 465.464C1717.97 495.356 1828.99 604.889 1989.21 535.903C1989.21 535.903 1845.66 565.241 1732.6 431.975Z" fill="white"/>
<path d="M1677.18 331.055C1677.21 328.876 1679.01 327.112 1681.23 327.146C1683.41 327.181 1685.17 329.014 1685.14 331.194C1685.14 331.263 1684.44 351.052 1702.99 351.225C1720.7 351.398 1715.41 323.859 1715.41 323.79C1714.99 321.611 1716.45 319.535 1718.59 319.12C1720.77 318.705 1722.85 320.158 1723.26 322.303C1723.26 322.406 1730.39 359.425 1702.92 359.183C1676.21 358.94 1677.18 331.159 1677.18 331.055Z" fill="#2E1719"/>
<path fill-rule="evenodd" clip-rule="evenodd" d="M692.107 587.867C692.107 587.867 665.537 607.622 671.661 649.414C677.784 691.207 688.924 704.908 691.45 712.83C693.976 720.753 717.051 668.512 718.124 632.843C719.196 597.173 704.527 589.943 704.527 589.943L692.107 587.867Z" fill="#2E1719"/>
<path fill-rule="evenodd" clip-rule="evenodd" d="M1330.83 246.259C1330.83 246.259 1454.58 235.707 1515.2 353.578C1515.2 353.578 1498.52 248.889 1421.96 223.356C1421.96 223.356 1508.42 228.027 1515.2 353.578C1515.2 353.578 1452.16 263.973 1330.83 246.259Z" fill="#6F6856"/>
<path fill-rule="evenodd" clip-rule="evenodd" d="M503.935 663.876C503.935 663.876 458.475 613.745 435.745 611.047C413.015 608.383 397.308 620.422 401.978 647.477C406.649 674.566 487.225 690.273 487.225 690.273L503.935 663.876Z" fill="#6F6856"/>
<path fill-rule="evenodd" clip-rule="evenodd" d="M453.113 839.385C453.113 839.385 456.538 1033.92 461.9 1068.69L466.848 1090.07H411.597C408.449 1069.28 408.829 1011.92 380.702 951.963C352.575 892.006 453.113 839.385 453.113 839.385ZM98.9467 862.669C98.9467 862.669 104.69 944.974 0 955.907L10.9327 1008.49C10.9327 1008.49 122.922 1007.46 163.539 931.931C204.155 856.407 98.9467 862.669 98.9467 862.669Z" fill="#6F6856"/>
<path fill-rule="evenodd" clip-rule="evenodd" d="M329.742 689.616C329.742 689.616 321.058 700.963 285.631 695.636C254.252 690.896 144.165 672.525 103.168 752.997V752.962C103.168 752.962 63.6932 823.678 63.3473 864.779C63.0705 900.102 66.9797 846.339 87.807 815.236C81.7525 919.234 166.238 969.261 173.987 974.416C181.702 979.571 187.791 1052.64 190.144 1090.07H196.821H247.955C247.955 1090.07 261.206 991.126 239.825 941.653C280.199 948.78 366.345 934.975 414.642 930.27C532.859 918.819 537.529 996.938 537.529 996.938L594.822 984.968C581.433 899.583 540.885 862.911 454.705 856.406C454.878 855.507 454.982 854.607 455.12 853.742C455.12 853.742 478.507 826.999 474.494 770.192C470.481 713.349 329.742 689.616 329.742 689.616Z" fill="#948977"/>
<path fill-rule="evenodd" clip-rule="evenodd" d="M454.704 856.406C454.877 855.507 454.981 854.607 455.119 853.742C455.119 853.742 473.178 833.088 474.839 789.566L312.996 704.492C312.996 704.492 290.646 743.448 328.772 783.546C378.833 836.237 379.041 867.131 454.704 856.406Z" fill="#6F6856"/>
<path fill-rule="evenodd" clip-rule="evenodd" d="M464.772 662.63C464.772 662.63 523.621 632.566 565.725 666.644C607.863 700.756 584.13 743.206 616.547 755.592C619.903 756.872 623.017 757.598 625.854 757.841C627.168 757.944 630.178 758.014 633.915 757.183L634.019 757.149C642.564 755.246 654.984 748.569 660.831 726.877C670.241 692.107 643.118 621.668 695.739 612.811C695.739 612.811 711.619 610.493 720.095 613.849L722.309 633.016C722.309 633.016 687.125 635.887 686.087 656.714C685.049 677.542 708.782 757.944 658.133 792.887C622.775 824.232 561.4 809.736 561.4 809.736C561.4 809.736 561.4 818.419 561.054 820.426C560.743 822.433 540.331 807.729 540.331 807.729C540.331 807.729 526.285 837.482 460.101 812.399C460.101 812.399 458.786 839.8 428.03 838.139C397.273 836.479 331.747 771.61 315.694 740.196C299.642 708.782 332.059 647.27 353.785 630.213C375.547 613.157 428.341 618.866 464.772 662.63Z" fill="#948977"/>
<path fill-rule="evenodd" clip-rule="evenodd" d="M646.716 801.017C611.012 821.464 561.401 809.736 561.401 809.736C561.401 809.736 561.401 818.419 561.055 820.426C560.743 822.432 540.331 807.729 540.331 807.729C540.331 807.729 526.285 837.482 460.102 812.399C460.102 812.399 465.36 780.709 462.489 761.162C462.489 761.162 474.978 792.991 507.949 792.23C540.919 791.468 553.513 773.928 553.513 773.928C553.513 773.928 577.903 826.515 646.716 801.017Z" fill="#6F6856"/>
<path d="M520.75 737.982C520.785 736.979 521.615 736.148 522.653 736.183C523.656 736.183 524.487 737.048 524.452 738.051C524.452 738.086 524.141 747.254 532.721 747.357C540.955 747.427 538.498 734.661 538.498 734.626C538.325 733.623 538.983 732.654 539.986 732.446C540.989 732.273 541.958 732.931 542.131 733.934C542.131 733.969 545.452 751.163 532.686 751.025C520.3 750.921 520.75 738.016 520.75 737.982Z" fill="#2E1719"/>
<path fill-rule="evenodd" clip-rule="evenodd" d="M63.7964 857.133C63.7964 857.133 51.48 866.267 54.3169 885.675C57.1539 905.049 62.3435 911.415 63.5198 915.083C64.696 918.75 75.3865 894.532 75.8708 877.995C76.3898 861.423 69.5742 858.067 69.5742 858.067L63.7964 857.133Z" fill="#2E1719"/>
<path fill-rule="evenodd" clip-rule="evenodd" d="M360.082 698.645C360.082 698.645 417.513 693.767 445.64 748.43C445.64 748.43 437.89 699.856 402.394 688.024C402.394 688.024 442.491 690.204 445.64 748.43C445.64 748.43 416.405 706.879 360.082 698.645Z" fill="#6F6856"/>
</svg>
