<svg width="18" height="20" viewBox="0 0 18 20" fill="none" xmlns="http://www.w3.org/2000/svg">
<path fill-rule="evenodd" clip-rule="evenodd" d="M9 1C5.44444 1 3.66667 3.50721 3.66667 6.6V8.33333C3.66667 9.4379 2.67308 10.3503 1.87601 11.115C1.36239 11.6078 1 12.3066 1 13.1333C1 14.1643 1.79594 15 2.77778 15H15.2222C16.2041 15 17 14.1643 17 13.1333C17 12.3066 16.6376 11.6078 16.124 11.115C15.3269 10.3503 14.3333 9.4379 14.3333 8.33333V6.6C14.3333 3.50721 12.5556 1 9 1Z" stroke="white" stroke-width="2"/>
<path d="M11 18C10.7968 18.3031 10.505 18.5547 10.154 18.7295C9.80302 18.9044 9.40506 18.9965 9 18.9965C8.59494 18.9965 8.19698 18.9044 7.84598 18.7295C7.49498 18.5547 7.20325 18.3031 7 18" stroke="white" stroke-width="2" stroke-linecap="round" stroke-linejoin="round"/>
</svg>
