<svg width="44" height="44" viewBox="0 0 44 44" fill="none" xmlns="http://www.w3.org/2000/svg">
<path fill-rule="evenodd" clip-rule="evenodd" d="M39.6758 0.0277513C41.8565 -0.249018 43.6894 1.58387 43.4126 3.76455C42.6006 10.1627 40.3502 17.9841 37.7782 25.0264C35.2098 32.059 32.2672 38.4604 30.0102 41.9972C29.3465 43.0373 28.2448 43.529 27.1471 43.4272C26.0794 43.3282 25.1135 42.6828 24.5671 41.6861L16.4889 26.9516L1.75428 18.8733C0.757524 18.3268 0.112145 17.361 0.0131254 16.2933C-0.0886844 15.1955 0.403085 14.0939 1.44314 13.4301C4.97993 11.1732 11.3814 8.23051 18.414 5.66214C25.4562 3.09018 33.2777 0.83978 39.6758 0.0277513Z" fill="#1D1B17"/>
</svg>
