<svg width="22" height="28" viewBox="0 0 22 28" fill="none" xmlns="http://www.w3.org/2000/svg">
<path fill-rule="evenodd" clip-rule="evenodd" d="M4.20747 10.7969C5.07553 10.6996 5.9712 10.4229 6.84992 10.0018C6.16041 9.14469 5.5859 8.3026 5.18201 7.49652C5.01155 7.15631 4.86684 6.81354 4.75672 6.47116C4.18068 7.84403 3.99743 9.34295 4.20747 10.7969ZM5.46188 2.8193C3.04093 5.24024 2.17994 8.62982 2.87583 11.7377C3.26117 13.4586 4.12388 15.0945 5.46188 16.4325C6.79987 17.7705 8.43577 18.6332 10.1567 19.0185C13.2645 19.7144 16.6541 18.8534 19.075 16.4325C21.496 14.0115 22.357 10.6219 21.6611 7.5141C21.2757 5.79319 20.413 4.1573 19.075 2.8193C17.737 1.4813 16.1012 0.618593 14.3802 0.233253C11.2724 -0.462642 7.88282 0.398353 5.46188 2.8193ZM6.50904 3.86647C6.15966 4.21585 6.00818 4.60601 6.00275 5.06231C5.99701 5.54445 6.15587 6.13427 6.50603 6.83312C6.88219 7.58387 7.44813 8.40058 8.15685 9.26155C8.88822 8.7821 9.59051 8.20884 10.2354 7.56399C10.8834 6.91599 11.4577 6.21139 11.9361 5.47889C11.0739 4.77608 10.2542 4.21675 9.50047 3.84637C8.79756 3.50097 8.20242 3.34544 7.71518 3.35398C7.25274 3.36208 6.85875 3.51675 6.50904 3.86647ZM12.6728 4.17063C11.8119 3.48508 10.9648 2.9159 10.1536 2.51726C9.81641 2.35157 9.47698 2.21107 9.13815 2.10395C10.5058 1.53536 11.9972 1.35573 13.4439 1.56554C13.3533 2.41952 13.085 3.30241 12.6728 4.17063ZM13.0643 6.45614C12.5447 7.22631 11.941 7.95268 11.2825 8.61116C10.6277 9.26595 9.90521 9.86723 9.13859 10.3864C9.50287 10.7829 9.89125 11.1863 10.2996 11.5947C10.7125 12.0075 11.1202 12.3999 11.5209 12.7676C12.0408 12.0021 12.6424 11.2802 13.297 10.6256C13.9552 9.96738 14.6809 9.36337 15.45 8.84299C15.0827 8.44051 14.6901 8.0314 14.2765 7.61781C13.8674 7.20867 13.4626 6.8201 13.0643 6.45614ZM16.7469 8.06905C16.2996 7.56957 15.8218 7.06872 15.3237 6.57065C14.8293 6.07626 14.3322 5.6018 13.8364 5.15734C14.3773 4.10988 14.751 3.01131 14.8941 1.91355C16.0388 2.30219 17.1142 2.9528 18.0279 3.86647C18.9424 4.78103 19.5934 5.85766 19.9819 7.0036C18.8878 7.15028 17.7921 7.52652 16.7469 8.06905ZM16.4263 9.97151C15.6953 10.4507 14.9917 11.0252 14.3441 11.6728C13.6997 12.3172 13.1263 13.0185 12.6461 13.7484C13.5022 14.452 14.3143 15.0141 15.0612 15.3883C15.7601 15.7385 16.3499 15.8973 16.832 15.8916C17.2883 15.8862 17.6785 15.7347 18.0279 15.3853C18.3776 15.0356 18.5323 14.6416 18.5404 14.1792C18.5489 13.6919 18.3934 13.0968 18.048 12.3939C17.6795 11.644 17.124 10.8289 16.4263 9.97151ZM19.7904 12.7562C19.6833 12.4174 19.5428 12.0779 19.3771 11.7408C18.9801 10.9329 18.414 10.0895 17.7323 9.23234C18.5984 8.8183 19.4785 8.54735 20.3292 8.45318C20.5384 9.89904 20.3586 11.3894 19.7904 12.7562ZM15.4232 17.1376C15.0808 17.0275 14.738 16.8828 14.3978 16.7123C13.5951 16.3101 12.7567 15.7388 11.9033 15.0531C11.4804 15.9296 11.2011 16.8225 11.1002 17.6873C12.5533 17.8967 14.0512 17.7133 15.4232 17.1376ZM9.65135 17.3411C9.80498 16.231 10.1907 15.1205 10.7438 14.0629C10.2473 13.6154 9.74883 13.1382 9.25248 12.6419C8.75982 12.1492 8.28608 11.6545 7.84148 11.1616C6.78157 11.7132 5.66807 12.0963 4.55436 12.2463C4.9428 13.393 5.594 14.4703 6.50904 15.3853C7.42498 16.3012 8.50348 16.9528 9.65135 17.3411Z" fill="white"/>
<path d="M6.84992 10.0018C5.9712 10.4229 5.07553 10.6996 4.20747 10.7969C3.99743 9.34295 4.18068 7.84403 4.75672 6.47116C4.86684 6.81354 5.01155 7.15631 5.18201 7.49652C5.5859 8.3026 6.16041 9.14469 6.84992 10.0018Z" fill="white"/>
<path d="M10.7438 14.0629C10.1907 15.1205 9.80498 16.231 9.65135 17.3411C8.50348 16.9528 7.42498 16.3012 6.50904 15.3853C5.594 14.4703 4.9428 13.393 4.55436 12.2463C5.66807 12.0963 6.78157 11.7132 7.84148 11.1616C8.28608 11.6545 8.75982 12.1492 9.25248 12.6419C9.74883 13.1382 10.2473 13.6154 10.7438 14.0629Z" fill="white"/>
<path d="M14.3978 16.7123C14.738 16.8828 15.0808 17.0275 15.4232 17.1376C14.0512 17.7133 12.5533 17.8967 11.1002 17.6873C11.2011 16.8225 11.4804 15.9296 11.9033 15.0531C12.7567 15.7388 13.5951 16.3101 14.3978 16.7123Z" fill="white"/>
<path fill-rule="evenodd" clip-rule="evenodd" d="M4.1458 2.61447L4.2707 2.73936C4.55987 3.02853 5.0287 3.02853 5.31786 2.73936C5.60703 2.45019 5.60703 1.98136 5.31786 1.69219L5.08567 1.46C4.56441 0.938743 3.68316 0.913425 3.15551 1.49926C-1.19655 6.33126 -1.04688 13.7793 3.60462 18.4308C5.64542 20.4716 8.22615 21.6462 10.8867 21.9536V24.7747C10.8867 25.1837 11.2182 25.5152 11.6271 25.5152C12.0361 25.5152 12.3676 25.1837 12.3676 24.7747L12.3676 22.0352C15.2929 22.0209 18.2161 20.9695 20.5362 18.8798C21.1221 18.3521 21.0966 17.4709 20.5754 16.9497L20.2003 16.5746C19.9111 16.2854 19.4423 16.2854 19.1531 16.5746C18.8639 16.8638 18.8639 17.3326 19.1531 17.6218L19.4209 17.8896C17.2177 19.8142 14.4206 20.6968 11.6704 20.5359C9.11487 20.3863 6.60414 19.336 4.65178 17.3836C0.599946 13.3318 0.431255 6.86671 4.1458 2.61447Z" fill="white"/>
<path fill-rule="evenodd" clip-rule="evenodd" d="M11.569 25.6838L7.53485 26.5191H15.6683L11.569 25.6838ZM11.2943 24.2283C11.474 24.1911 11.6594 24.1908 11.8392 24.2275L17.1965 25.3191C18.7962 25.6451 18.5586 28 16.9261 28H6.2966C4.6667 28 4.42597 25.6505 6.02205 25.32L11.2943 24.2283Z" fill="white"/>
</svg>
